# xmcd
#
# Track frame offsets:
#	150
#	27235
#	51458
#	84185
#	103260
#	129076
#	183912
#	194828
#	225731
#
# Disc length: 3305 seconds
#
# Revision: 2
# Processed by: cddbd v1.5.1PL2 Copyright (c) Steve Scherf et al.
# Submitted via: EasyCDDAExtractor 9.0.0.1
#
DISCID=740ce709
DTITLE=Whitesnake - Reading Festival 24-08-80
DYEAR=1980
DGENRE=Hard Rock
TTITLE0=Sweet Talker
TTITLE1=Walking In The Shadow Of The Blues
TTITLE2=Ain't Gonna Cry No More
TTITLE3=Love Hunter
TTITLE4=Guitar Solo
TTITLE5=Mistreated
TTITLE6=Soldier Of Fortune
TTITLE7=Ain't No Love (In The Heart Of The City)
TTITLE8=Fool For Your Loving
EXTD=YEAR: 1980
EXTT0=
EXTT1=
EXTT2=
EXTT3=
EXTT4=
EXTT5=
EXTT6=
EXTT7=
EXTT8=
PLAYORDER=
